<svg width="46" height="46" viewBox="0 0 46 46" fill="none" xmlns="http://www.w3.org/2000/svg">
<path d="M0 12C0 5.37258 5.37258 0 12 0H34C40.6274 0 46 5.37258 46 12V34C46 40.6274 40.6274 46 34 46H12C5.37258 46 0 40.6274 0 34V12Z" fill="white"/>
<path fill-rule="evenodd" clip-rule="evenodd" d="M10 14.5C10 14.2239 10.2239 14 10.5 14H13.5C13.7294 14 13.9294 14.1561 13.9851 14.3787L14.8904 18H31.5C31.6591 18 31.8086 18.0757 31.9028 18.2038C31.9971 18.332 32.0247 18.4973 31.9772 18.6491L29.4772 26.6491C29.412 26.8579 29.2187 27 29 27H16.5C16.2706 27 16.0706 26.8439 16.0149 26.6213L13.1096 15H10.5C10.2239 15 10 14.7761 10 14.5ZM15.1404 19L16.8904 26H28.6324L30.8199 19H15.1404Z" fill="#F04716"/>
<path fill-rule="evenodd" clip-rule="evenodd" d="M18.5 32C19.3284 32 20 31.3284 20 30.5C20 29.6716 19.3284 29 18.5 29C17.6716 29 17 29.6716 17 30.5C17 31.3284 17.6716 32 18.5 32ZM18.5 33C19.8807 33 21 31.8807 21 30.5C21 29.1193 19.8807 28 18.5 28C17.1193 28 16 29.1193 16 30.5C16 31.8807 17.1193 33 18.5 33Z" fill="#F04716"/>
<path fill-rule="evenodd" clip-rule="evenodd" d="M26.5 32C27.3284 32 28 31.3284 28 30.5C28 29.6716 27.3284 29 26.5 29C25.6716 29 25 29.6716 25 30.5C25 31.3284 25.6716 32 26.5 32ZM26.5 33C27.8807 33 29 31.8807 29 30.5C29 29.1193 27.8807 28 26.5 28C25.1193 28 24 29.1193 24 30.5C24 31.8807 25.1193 33 26.5 33Z" fill="#F04716"/>
<path d="M32 15.5C32 14.6716 31.3284 14 30.5 14C29.6716 14 29 14.6716 29 15.5V17H27.5C26.6716 17 26 17.6716 26 18.5C26 19.3284 26.6716 20 27.5 20H29V21.5C29 22.3284 29.6716 23 30.5 23C31.3284 23 32 22.3284 32 21.5V20H33.5C34.3284 20 35 19.3284 35 18.5C35 17.6716 34.3284 17 33.5 17H32V15.5Z" fill="#F04716" stroke="white" stroke-width="2"/>
<path d="M12 1H34V-1H12V1ZM45 12V34H47V12H45ZM34 45H12V47H34V45ZM1 34V12H-1V34H1ZM12 45C5.92487 45 1 40.0751 1 34H-1C-1 41.1797 4.8203 47 12 47V45ZM45 34C45 40.0751 40.0751 45 34 45V47C41.1797 47 47 41.1797 47 34H45ZM34 1C40.0751 1 45 5.92487 45 12H47C47 4.8203 41.1797 -1 34 -1V1ZM12 -1C4.8203 -1 -1 4.8203 -1 12H1C1 5.92487 5.92487 1 12 1V-1Z" fill="#DEDFE7"/>
</svg>
