<svg width="40" height="40" viewBox="0 0 40 40" fill="none" xmlns="http://www.w3.org/2000/svg">
<path d="M6 17C6 12.0294 10.0294 8 15 8H25C29.9706 8 34 12.0294 34 17V22C34 26.9706 29.9706 31 25 31H23.5H21L17 35V31H16H15C10.0294 31 6 26.9706 6 22V17Z" fill="#7D3DAF"/>
<path d="M20.2236 13C21.957 13.2418 23.5273 14.0255 24.7684 15.2665C25.9454 16.4464 26.7174 17.9322 27 19.5694L25.925 19.7529C25.6832 18.34 25.016 17.0553 23.9993 16.0385C22.9272 14.9694 21.5695 14.2906 20.0721 14.0808L20.2236 13Z" fill="white"/>
<path d="M23.6439 22.2613C23.1865 21.8097 22.6155 21.8097 22.161 22.2613C21.8143 22.605 21.4676 22.9488 21.1267 23.2984C21.0335 23.3945 20.9549 23.4149 20.8412 23.3508C20.7523 23.3023 20.6611 23.2575 20.57 23.2127C20.4312 23.1445 20.2926 23.0763 20.1624 22.9954C19.1573 22.3632 18.3153 21.5504 17.5695 20.6357C17.1995 20.1812 16.8703 19.6947 16.6402 19.147C16.5935 19.0363 16.6023 18.9635 16.6926 18.8731C16.9896 18.5861 17.2802 18.2927 17.5717 17.9984L17.7181 17.8506C18.193 17.3728 18.193 16.8135 17.7152 16.3328C17.5797 16.1959 17.4442 16.0604 17.3088 15.9249C17.1733 15.7895 17.0378 15.654 16.9024 15.5171C16.8092 15.4239 16.7163 15.3304 16.6235 15.2369C16.4376 15.0497 16.2518 14.8626 16.0633 14.678C15.6059 14.2323 15.0349 14.2323 14.5804 14.681C14.5318 14.7288 14.4835 14.7767 14.4353 14.8248C14.345 14.915 14.2555 15.0055 14.1659 15.096L14.1644 15.0975C13.9587 15.3052 13.7532 15.5128 13.5404 15.7152C13.2112 16.0269 13.0451 16.4085 13.0101 16.8543C12.9548 17.5797 13.1325 18.2643 13.3831 18.9314C13.8958 20.3123 14.6766 21.5388 15.6234 22.6633C16.9024 24.184 18.429 25.3872 20.2148 26.2554C21.0189 26.6457 21.8521 26.9458 22.7582 26.9953C23.3816 27.0303 23.9235 26.873 24.3576 26.3864C24.553 26.1681 24.7647 25.9624 24.9762 25.7568C25.0864 25.6497 25.1967 25.5426 25.3045 25.4338C25.7706 24.9619 25.7735 24.3909 25.3103 23.9247C24.7594 23.371 24.2057 22.8201 23.6519 22.2693L23.6439 22.2613Z" fill="white"/>
<path d="M23.0874 19.9394L24.1624 19.7559C23.9935 18.7683 23.5273 17.8739 22.8194 17.1631C22.0706 16.4143 21.1238 15.9424 20.0809 15.7967L19.9293 16.8776C20.7364 16.9912 21.4705 17.3553 22.0503 17.9351C22.598 18.4828 22.9563 19.1761 23.0874 19.9394Z" fill="white"/>
</svg>
