<svg width="40" height="40" viewBox="0 0 40 40" fill="none" xmlns="http://www.w3.org/2000/svg">
<circle cx="20" cy="20" r="14" fill="#4D76A1"/>
<path fill-rule="evenodd" clip-rule="evenodd" d="M19.3174 24.9623H20.3336C20.3336 24.9623 20.6405 24.9311 20.7972 24.7743C20.9415 24.6304 20.9369 24.3601 20.9369 24.3601C20.9369 24.3601 20.917 23.0947 21.5498 22.9084C22.1736 22.7249 22.9747 24.1313 23.8238 24.6721C24.4658 25.0814 24.9537 24.9917 24.9537 24.9917L27.224 24.9623C27.224 24.9623 28.4116 24.8944 27.8485 24.0279C27.8023 23.957 27.5205 23.3869 26.1605 22.2154C24.737 20.9892 24.9276 21.1876 26.6424 19.0666C27.6867 17.775 28.1042 16.9864 27.9738 16.6486C27.8494 16.3269 27.0813 16.412 27.0813 16.412L24.5251 16.4267C24.5251 16.4267 24.3357 16.4028 24.1951 16.4807C24.0578 16.5572 23.9694 16.7354 23.9694 16.7354C23.9694 16.7354 23.5648 17.7349 23.0253 18.5849C21.887 20.3786 21.4319 20.4733 21.2459 20.3619C20.8132 20.1024 20.9212 19.3191 20.9212 18.7627C20.9212 17.0245 21.2053 16.2997 20.368 16.1121C20.0901 16.0498 19.8856 16.0087 19.175 16.002C18.263 15.9933 17.491 16.0046 17.0539 16.2034C16.7631 16.3355 16.5388 16.63 16.6754 16.6469C16.8443 16.6679 17.227 16.7426 17.4298 16.999C17.6918 17.3297 17.6825 18.0724 17.6825 18.0724C17.6825 18.0724 17.833 20.1186 17.3311 20.3728C16.9865 20.5472 16.5138 20.1912 15.4991 18.564C14.9791 17.7304 14.5865 16.809 14.5865 16.809C14.5865 16.809 14.5108 16.6368 14.3758 16.5448C14.212 16.4332 13.983 16.3976 13.983 16.3976L11.554 16.4124C11.554 16.4124 11.1894 16.4218 11.0555 16.569C10.9364 16.6998 11.046 16.9705 11.046 16.9705C11.046 16.9705 12.9477 21.0993 15.101 23.18C17.0753 25.0876 19.3174 24.9623 19.3174 24.9623Z" fill="white"/>
</svg>
