<svg width="40" height="40" viewBox="0 0 40 40" fill="none" xmlns="http://www.w3.org/2000/svg">
<path d="M20 34C27.732 34 34 27.732 34 20C34 12.268 27.732 6 20 6C12.268 6 6 12.268 6 20C6 22.6104 6.71441 25.0539 7.95838 27.1457L6 34L12.8543 32.0416C14.9461 33.2856 17.3896 34 20 34Z" fill="#55CD6C"/>
<path d="M24.9333 21.1324C24.4634 20.6686 23.8769 20.6686 23.41 21.1324C23.0539 21.4855 22.6978 21.8387 22.3477 22.1977C22.2519 22.2965 22.1711 22.3174 22.0544 22.2516C21.9631 22.2018 21.8694 22.1558 21.7758 22.1097C21.6333 22.0396 21.4909 21.9696 21.3571 21.8865C20.3247 21.2372 19.4599 20.4023 18.6938 19.4626C18.3137 18.9958 17.9756 18.4961 17.7392 17.9335C17.6913 17.8198 17.7002 17.7449 17.793 17.6522C18.0981 17.3574 18.3966 17.056 18.696 16.7536L18.8464 16.6018C19.3342 16.1111 19.3342 15.5365 18.8434 15.0427C18.7042 14.9021 18.5651 14.7629 18.4259 14.6238C18.2868 14.4846 18.1476 14.3455 18.0085 14.2048C17.9127 14.1091 17.8174 14.0131 17.722 13.917C17.5311 13.7248 17.3402 13.5326 17.1466 13.343C16.6768 12.8852 16.0902 12.8852 15.6234 13.346C15.5735 13.3951 15.5238 13.4444 15.4743 13.4938C15.3816 13.5864 15.2896 13.6794 15.1976 13.7723L15.1961 13.7738C14.9848 13.9873 14.7737 14.2005 14.5551 14.4083C14.2169 14.7285 14.0463 15.1205 14.0104 15.5784C13.9536 16.3235 14.1361 17.0267 14.3935 17.712C14.9202 19.1305 15.7222 20.3903 16.6947 21.5454C18.0085 23.1075 19.5766 24.3434 21.411 25.2351C22.237 25.6361 23.0928 25.9443 24.0235 25.9952C24.6639 26.0311 25.2205 25.8695 25.6664 25.3698C25.8671 25.1455 26.0845 24.9342 26.3018 24.723C26.415 24.613 26.5283 24.503 26.639 24.3912C27.1178 23.9065 27.1208 23.3199 26.645 22.8411C26.0792 22.2723 25.5103 21.7065 24.9415 21.1407L24.9333 21.1324Z" fill="white"/>
</svg>
