<svg width="180" height="43" viewBox="0 0 180 43" fill="none" xmlns="http://www.w3.org/2000/svg">
<path fill-rule="evenodd" clip-rule="evenodd" d="M0 14.2789V28.6441C0 31.2113 1.36762 33.5823 3.58522 34.8597L15.9331 41.9728C18.125 43.2355 20.8184 43.2401 23.0146 41.985L35.4895 34.8555C37.719 33.5813 39.0959 31.2036 39.0959 28.6278V14.2953C39.0959 11.7194 37.719 9.34174 35.4895 8.06756L23.0146 0.938094C20.8184 -0.317026 18.125 -0.312396 15.9331 0.950254L3.58521 8.06334C1.36762 9.34081 0 11.7118 0 14.2789ZM3.10285 28.6441V14.2789C3.10285 12.8279 3.87585 11.4878 5.12928 10.7658L7.91227 9.1626V33.7605L5.12928 32.1573C3.87586 31.4353 3.10285 30.0951 3.10285 28.6441ZM14.118 37.3353L17.4772 39.2704C18.7161 39.9841 20.2384 39.9867 21.4797 39.2773L32.6869 32.8723H13.9628C13.106 32.8723 12.4114 32.1749 12.4114 31.3145C12.4114 30.4542 13.106 29.7567 13.9628 29.7567H35.8333C35.938 29.3948 35.9931 29.0152 35.9931 28.6278V16.9829H13.9628C13.106 16.9829 12.4114 16.2854 12.4114 15.4251C12.4114 14.5648 13.106 13.8673 13.9628 13.8673H35.9706C35.8345 12.5798 35.0903 11.4243 33.9547 10.7753L21.4797 3.6458C20.2384 2.93639 18.7161 2.939 17.4772 3.65267L14.118 5.58775V12.6211C12.5757 12.6211 11.3254 13.8765 11.3254 15.4251C11.3254 16.9737 12.5757 18.2291 14.118 18.2291V28.5105C12.5757 28.5105 11.3254 29.7659 11.3254 31.3145C11.3254 32.8631 12.5757 34.1185 14.118 34.1185V37.3353Z" fill="white"/>
<path d="M53.1613 24.5801C51.9449 24.5801 50.7644 24.4298 49.6196 24.1294C48.4749 23.8289 47.5447 23.4283 46.8293 22.9275L48.2244 19.7941C48.897 20.2377 49.6769 20.5954 50.5641 20.8672C51.4513 21.1391 52.3241 21.275 53.1827 21.275C54.814 21.275 55.6297 20.8672 55.6297 20.0517C55.6297 19.6224 55.3936 19.3077 54.9213 19.1074C54.4634 18.8927 53.7193 18.671 52.689 18.4421C51.5586 18.1988 50.6141 17.9413 49.8557 17.6694C49.0973 17.3833 48.4462 16.9326 47.9025 16.3174C47.3587 15.7021 47.0868 14.8723 47.0868 13.8278C47.0868 12.9121 47.3372 12.0894 47.8381 11.3597C48.3389 10.6157 49.083 10.0291 50.0704 9.5999C51.0721 9.17067 52.2955 8.95605 53.7408 8.95605C54.7282 8.95605 55.7012 9.07052 56.66 9.29944C57.6187 9.51406 58.463 9.83598 59.1928 10.2652L57.8834 13.4201C56.4525 12.6474 55.0644 12.2611 53.7193 12.2611C52.8751 12.2611 52.2598 12.3899 51.8734 12.6474C51.487 12.8907 51.2939 13.2126 51.2939 13.6132C51.2939 14.0138 51.5228 14.3143 51.9807 14.5146C52.4386 14.7149 53.1756 14.9224 54.1916 15.137C55.3363 15.3802 56.2808 15.6449 57.0249 15.9311C57.7833 16.2029 58.4344 16.6464 58.9781 17.2617C59.5362 17.8626 59.8152 18.6853 59.8152 19.7297C59.8152 20.6311 59.5648 21.4467 59.064 22.1764C58.5631 22.9061 57.8119 23.4927 56.8102 23.9362C55.8085 24.3654 54.5922 24.5801 53.1613 24.5801Z" fill="white"/>
<path d="M69.5056 9.25652C70.865 9.25652 72.0455 9.48544 73.0472 9.94329C74.0489 10.3868 74.8216 11.0307 75.3654 11.8748C75.9091 12.7047 76.181 13.6847 76.181 14.8151C76.181 15.9454 75.9091 16.9254 75.3654 17.7553C74.8216 18.5851 74.0489 19.229 73.0472 19.6868C72.0455 20.1304 70.865 20.3521 69.5056 20.3521H66.8869V24.2796H62.637V9.25652H69.5056ZM69.248 17.0041C70.1209 17.0041 70.7791 16.8181 71.2227 16.4461C71.6663 16.0598 71.8881 15.5161 71.8881 14.8151C71.8881 14.114 71.6663 13.5703 71.2227 13.184C70.7791 12.7977 70.1209 12.6045 69.248 12.6045H66.8869V17.0041H69.248Z" fill="white"/>
<path d="M86.8983 24.5801C85.31 24.5801 83.879 24.2438 82.6054 23.5714C81.3462 22.8989 80.3517 21.9689 79.6219 20.7814C78.9064 19.5938 78.5487 18.2561 78.5487 16.7681C78.5487 15.2801 78.9064 13.9423 79.6219 12.7547C80.3517 11.5672 81.3462 10.6372 82.6054 9.96475C83.879 9.29229 85.31 8.95605 86.8983 8.95605C88.4867 8.95605 89.9105 9.29229 91.1697 9.96475C92.4433 10.6372 93.4378 11.5672 94.1533 12.7547C94.8831 13.9423 95.248 15.2801 95.248 16.7681C95.248 18.2561 94.8831 19.5938 94.1533 20.7814C93.4378 21.9689 92.4433 22.8989 91.1697 23.5714C89.9105 24.2438 88.4867 24.5801 86.8983 24.5801ZM86.8983 21.0604C87.6567 21.0604 88.3436 20.8815 88.9589 20.5238C89.5742 20.1661 90.0607 19.6654 90.4185 19.0215C90.7762 18.3634 90.9551 17.6122 90.9551 16.7681C90.9551 15.9239 90.7762 15.1799 90.4185 14.5361C90.0607 13.8779 89.5742 13.37 88.9589 13.0123C88.3436 12.6546 87.6567 12.4757 86.8983 12.4757C86.1399 12.4757 85.453 12.6546 84.8377 13.0123C84.2224 13.37 83.7359 13.8779 83.3782 14.5361C83.0204 15.1799 82.8415 15.9239 82.8415 16.7681C82.8415 17.6122 83.0204 18.3634 83.3782 19.0215C83.7359 19.6654 84.2224 20.1661 84.8377 20.5238C85.453 20.8815 86.1399 21.0604 86.8983 21.0604Z" fill="white"/>
<path d="M104.901 20.2877H102.582V24.2796H98.3325V9.25652H105.201C106.561 9.25652 107.741 9.48544 108.743 9.94329C109.744 10.3868 110.517 11.0307 111.061 11.8748C111.605 12.7047 111.877 13.6847 111.877 14.8151C111.877 15.9024 111.619 16.8539 111.104 17.6694C110.603 18.4707 109.88 19.1002 108.936 19.5581L112.177 24.2796H107.627L104.901 20.2877ZM107.584 14.8151C107.584 14.114 107.362 13.5703 106.918 13.184C106.475 12.7977 105.816 12.6045 104.944 12.6045H102.582V17.0041H104.944C105.816 17.0041 106.475 16.8181 106.918 16.4461C107.362 16.0598 107.584 15.5161 107.584 14.8151Z" fill="white"/>
<path d="M118.068 12.626H113.454V9.25652H126.912V12.626H122.318V24.2796H118.068V12.626Z" fill="white"/>
<path d="M136.721 24.5801C135.133 24.5801 133.702 24.2438 132.428 23.5714C131.169 22.8989 130.174 21.9689 129.445 20.7814C128.729 19.5938 128.371 18.2561 128.371 16.7681C128.371 15.2801 128.729 13.9423 129.445 12.7547C130.174 11.5672 131.169 10.6372 132.428 9.96475C133.702 9.29229 135.133 8.95605 136.721 8.95605C138.309 8.95605 139.733 9.29229 140.992 9.96475C142.266 10.6372 143.26 11.5672 143.976 12.7547C144.706 13.9423 145.071 15.2801 145.071 16.7681C145.071 18.2561 144.706 19.5938 143.976 20.7814C143.26 21.9689 142.266 22.8989 140.992 23.5714C139.733 24.2438 138.309 24.5801 136.721 24.5801ZM136.721 21.0604C137.479 21.0604 138.166 20.8815 138.782 20.5238C139.397 20.1661 139.883 19.6654 140.241 19.0215C140.599 18.3634 140.778 17.6122 140.778 16.7681C140.778 15.9239 140.599 15.1799 140.241 14.5361C139.883 13.8779 139.397 13.37 138.782 13.0123C138.166 12.6546 137.479 12.4757 136.721 12.4757C135.963 12.4757 135.276 12.6546 134.66 13.0123C134.045 13.37 133.559 13.8779 133.201 14.5361C132.843 15.1799 132.664 15.9239 132.664 16.7681C132.664 17.6122 132.843 18.3634 133.201 19.0215C133.559 19.6654 134.045 20.1661 134.66 20.5238C135.276 20.8815 135.963 21.0604 136.721 21.0604Z" fill="white"/>
<path d="M162.871 9.25652L156.432 24.2796H152.246L145.828 9.25652H150.421L154.5 19.043L158.664 9.25652H162.871Z" fill="white"/>
<path d="M174.152 21.3608H167.798L166.618 24.2796H162.282L168.914 9.25652H173.1L179.754 24.2796H175.332L174.152 21.3608ZM172.907 18.2274L170.975 13.4201L169.043 18.2274H172.907Z" fill="white"/>
<path d="M49.5753 34.1221C49.1595 34.1221 48.7836 34.0302 48.4478 33.8463C48.1159 33.6624 47.854 33.4085 47.6621 33.0847C47.4742 32.7569 47.3802 32.3911 47.3802 31.9873C47.3802 31.5836 47.4742 31.2198 47.6621 30.8959C47.854 30.5681 48.1179 30.3123 48.4538 30.1284C48.7896 29.9445 49.1654 29.8525 49.5813 29.8525C49.8931 29.8525 50.181 29.9045 50.4449 30.0085C50.7088 30.1124 50.9327 30.2643 51.1166 30.4642L50.8347 30.746C50.5069 30.4142 50.093 30.2483 49.5933 30.2483C49.2614 30.2483 48.9595 30.3243 48.6877 30.4762C48.4158 30.6281 48.2019 30.836 48.0459 31.0998C47.894 31.3637 47.818 31.6595 47.818 31.9873C47.818 32.3151 47.894 32.611 48.0459 32.8748C48.2019 33.1387 48.4158 33.3466 48.6877 33.4985C48.9595 33.6504 49.2614 33.7263 49.5933 33.7263C50.097 33.7263 50.5109 33.5584 50.8347 33.2226L51.1166 33.5045C50.9327 33.7044 50.7068 33.8583 50.4389 33.9662C50.175 34.0702 49.8871 34.1221 49.5753 34.1221Z" fill="white"/>
<path d="M57.8446 29.8885V34.0861H57.4068V30.2723H54.75V34.0861H54.3122V29.8885H57.8446Z" fill="white"/>
<path d="M63.3814 34.1221C62.9656 34.1221 62.5878 34.0302 62.2479 33.8463C61.912 33.6584 61.6482 33.4025 61.4562 33.0787C61.2683 32.7549 61.1744 32.3911 61.1744 31.9873C61.1744 31.5836 61.2683 31.2198 61.4562 30.8959C61.6482 30.5721 61.912 30.3183 62.2479 30.1344C62.5878 29.9465 62.9656 29.8525 63.3814 29.8525C63.7972 29.8525 64.1711 29.9445 64.5029 30.1284C64.8388 30.3123 65.1027 30.5681 65.2946 30.8959C65.4865 31.2198 65.5825 31.5836 65.5825 31.9873C65.5825 32.3911 65.4865 32.7569 65.2946 33.0847C65.1027 33.4085 64.8388 33.6624 64.5029 33.8463C64.1711 34.0302 63.7972 34.1221 63.3814 34.1221ZM63.3814 33.7263C63.7133 33.7263 64.0131 33.6524 64.281 33.5045C64.5489 33.3526 64.7588 33.1447 64.9108 32.8808C65.0627 32.613 65.1387 32.3151 65.1387 31.9873C65.1387 31.6595 65.0627 31.3637 64.9108 31.0998C64.7588 30.832 64.5489 30.6241 64.281 30.4762C64.0131 30.3243 63.7133 30.2483 63.3814 30.2483C63.0496 30.2483 62.7477 30.3243 62.4758 30.4762C62.2079 30.6241 61.996 30.832 61.8401 31.0998C61.6881 31.3637 61.6122 31.6595 61.6122 31.9873C61.6122 32.3151 61.6881 32.613 61.8401 32.8808C61.996 33.1447 62.2079 33.3526 62.4758 33.5045C62.7477 33.6524 63.0496 33.7263 63.3814 33.7263Z" fill="white"/>
<path d="M70.4919 29.8885C71.0276 29.8885 71.4475 30.0164 71.7513 30.2723C72.0552 30.5282 72.2071 30.88 72.2071 31.3277C72.2071 31.7755 72.0552 32.1273 71.7513 32.3831C71.4475 32.635 71.0276 32.7609 70.4919 32.7609H69.3644V34.0861H68.9205V29.8885H70.4919ZM70.4799 32.3711C70.8957 32.3711 71.2136 32.2812 71.4335 32.1013C71.6534 31.9174 71.7633 31.6595 71.7633 31.3277C71.7633 30.9879 71.6534 30.728 71.4335 30.5481C71.2136 30.3642 70.8957 30.2723 70.4799 30.2723H69.3644V32.3711H70.4799Z" fill="white"/>
<path d="M78.0052 30.2723H76.5298V34.0861H76.092V30.2723H74.6166V29.8885H78.0052V30.2723Z" fill="white"/>
<path d="M81.0632 29.8885H81.501V33.3666L84.1879 29.8885H84.5897V34.0861H84.1519V30.6141L81.465 34.0861H81.0632V29.8885Z" fill="white"/>
<path d="M90.7743 31.9214C91.0662 31.9813 91.2881 32.0993 91.44 32.2752C91.592 32.4471 91.6679 32.6729 91.6679 32.9528C91.6679 33.3166 91.538 33.5964 91.2781 33.7923C91.0222 33.9882 90.6444 34.0861 90.1446 34.0861H88.2854V29.8885H90.0306C90.4785 29.8885 90.8283 29.9805 91.0802 30.1644C91.3321 30.3483 91.458 30.6141 91.458 30.9619C91.458 31.1978 91.3981 31.3977 91.2781 31.5616C91.1582 31.7215 90.9902 31.8414 90.7743 31.9214ZM88.7232 31.7894H90.0067C90.3305 31.7894 90.5784 31.7235 90.7503 31.5916C90.9263 31.4596 91.0142 31.2677 91.0142 31.0159C91.0142 30.764 90.9263 30.5721 90.7503 30.4402C90.5784 30.3083 90.3305 30.2423 90.0067 30.2423H88.7232V31.7894ZM90.1446 33.7323C90.8683 33.7323 91.2301 33.4625 91.2301 32.9228C91.2301 32.3951 90.8683 32.1312 90.1446 32.1312H88.7232V33.7323H90.1446Z" fill="white"/>
<path d="M98.5651 29.8885V34.0861H98.1273V32.1492H95.5004V34.0861H95.0566V29.8885H95.5004V31.7595H98.1273V29.8885H98.5651Z" fill="white"/>
<path d="M104.018 31.3877C104.514 31.3877 104.892 31.4996 105.152 31.7235C105.416 31.9474 105.548 32.2752 105.548 32.7069C105.548 33.1587 105.408 33.5025 105.128 33.7383C104.852 33.9702 104.452 34.0861 103.929 34.0861H102.261V29.8885H102.699V31.3877H104.018ZM103.917 33.7323C104.304 33.7323 104.598 33.6464 104.798 33.4745C105.002 33.3026 105.104 33.0487 105.104 32.7129C105.104 32.0693 104.708 31.7475 103.917 31.7475H102.699V33.7323H103.917ZM106.274 29.8885H106.711V34.0861H106.274V29.8885Z" fill="white"/>
<path d="M113.372 33.7024V34.0861H110.403V29.8885H113.282V30.2723H110.847V31.7655H113.018V32.1432H110.847V33.7024H113.372Z" fill="white"/>
<path d="M121.875 32.1612H120.916V34.0861H120.484V29.8885H120.916V31.7715H121.875L123.297 29.8885H123.777L122.217 31.9274L123.867 34.0861H123.357L121.875 32.1612Z" fill="white"/>
<path d="M128.663 34.1221C128.247 34.1221 127.869 34.0302 127.53 33.8463C127.194 33.6584 126.93 33.4025 126.738 33.0787C126.55 32.7549 126.456 32.3911 126.456 31.9873C126.456 31.5836 126.55 31.2198 126.738 30.8959C126.93 30.5721 127.194 30.3183 127.53 30.1344C127.869 29.9465 128.247 29.8525 128.663 29.8525C129.079 29.8525 129.453 29.9445 129.785 30.1284C130.12 30.3123 130.384 30.5681 130.576 30.8959C130.768 31.2198 130.864 31.5836 130.864 31.9873C130.864 32.3911 130.768 32.7569 130.576 33.0847C130.384 33.4085 130.12 33.6624 129.785 33.8463C129.453 34.0302 129.079 34.1221 128.663 34.1221ZM128.663 33.7263C128.995 33.7263 129.295 33.6524 129.563 33.5045C129.831 33.3526 130.04 33.1447 130.192 32.8808C130.344 32.613 130.42 32.3151 130.42 31.9873C130.42 31.6595 130.344 31.3637 130.192 31.0998C130.04 30.832 129.831 30.6241 129.563 30.4762C129.295 30.3243 128.995 30.2483 128.663 30.2483C128.331 30.2483 128.029 30.3243 127.757 30.4762C127.49 30.6241 127.278 30.832 127.122 31.0998C126.97 31.3637 126.894 31.6595 126.894 31.9873C126.894 32.3151 126.97 32.613 127.122 32.8808C127.278 33.1447 127.49 33.3526 127.757 33.5045C128.029 33.6524 128.331 33.7263 128.663 33.7263Z" fill="white"/>
<path d="M138.562 29.8885V34.0861H138.136V30.728L136.487 33.5524H136.277L134.628 30.746V34.0861H134.202V29.8885H134.568L136.391 33.0008L138.196 29.8885H138.562Z" fill="white"/>
<path d="M145.789 29.8885V34.0861H145.351V30.2723H142.694V34.0861H142.256V29.8885H145.789Z" fill="white"/>
<path d="M152.712 29.8885V34.0861H152.274V30.2723H150.247L150.199 31.6755C150.179 32.2552 150.131 32.7229 150.055 33.0787C149.983 33.4305 149.871 33.6944 149.72 33.8703C149.568 34.0422 149.366 34.1281 149.114 34.1281C149.006 34.1281 148.894 34.1141 148.778 34.0861L148.814 33.6904C148.882 33.7064 148.948 33.7144 149.012 33.7144C149.188 33.7144 149.33 33.6444 149.438 33.5045C149.55 33.3646 149.634 33.1487 149.69 32.8568C149.746 32.561 149.784 32.1712 149.804 31.6875L149.863 29.8885H152.712Z" fill="white"/>
<path d="M159.376 33.7024V34.0861H156.408V29.8885H159.286V30.2723H156.851V31.7655H159.022V32.1432H156.851V33.7024H159.376Z" fill="white"/>
<path d="M164.031 32.1612H163.072V34.0861H162.64V29.8885H163.072V31.7715H164.031L165.453 29.8885H165.933L164.373 31.9274L166.023 34.0861H165.513L164.031 32.1612Z" fill="white"/>
<path d="M170.813 34.1221C170.397 34.1221 170.021 34.0302 169.686 33.8463C169.354 33.6624 169.092 33.4085 168.9 33.0847C168.712 32.7569 168.618 32.3911 168.618 31.9873C168.618 31.5836 168.712 31.2198 168.9 30.8959C169.092 30.5681 169.356 30.3123 169.692 30.1284C170.027 29.9445 170.403 29.8525 170.819 29.8525C171.131 29.8525 171.419 29.9045 171.683 30.0085C171.947 30.1124 172.17 30.2643 172.354 30.4642L172.072 30.746C171.745 30.4142 171.331 30.2483 170.831 30.2483C170.499 30.2483 170.197 30.3243 169.925 30.4762C169.654 30.6281 169.44 30.836 169.284 31.0998C169.132 31.3637 169.056 31.6595 169.056 31.9873C169.056 32.3151 169.132 32.611 169.284 32.8748C169.44 33.1387 169.654 33.3466 169.925 33.4985C170.197 33.6504 170.499 33.7263 170.831 33.7263C171.335 33.7263 171.749 33.5584 172.072 33.2226L172.354 33.5045C172.17 33.7044 171.945 33.8583 171.677 33.9662C171.413 34.0702 171.125 34.1221 170.813 34.1221Z" fill="white"/>
<path d="M177.307 31.3877C177.803 31.3877 178.181 31.4996 178.441 31.7235C178.705 31.9474 178.836 32.2752 178.836 32.7069C178.836 33.1587 178.697 33.5025 178.417 33.7383C178.141 33.9702 177.741 34.0861 177.217 34.0861H175.55V29.8885H175.988V31.3877H177.307ZM177.205 33.7323C177.593 33.7323 177.887 33.6464 178.087 33.4745C178.291 33.3026 178.393 33.0487 178.393 32.7129C178.393 32.0693 177.997 31.7475 177.205 31.7475H175.988V33.7323H177.205ZM179.562 29.8885H180V34.0861H179.562V29.8885Z" fill="white"/>
</svg>
